<?xml version="1.0" encoding="iso-8859-1"?>
<!-- Uploaded to: SVG Repo, www.svgrepo.com, Generator: SVG Repo Mixer Tools -->
<!DOCTYPE svg PUBLIC "-//W3C//DTD SVG 1.1//EN" "http://www.w3.org/Graphics/SVG/1.1/DTD/svg11.dtd">
<svg fill="#000000" version="1.1" id="Capa_1" xmlns="http://www.w3.org/2000/svg" xmlns:xlink="http://www.w3.org/1999/xlink" 
	 width="800px" height="800px" viewBox="0 0 31.145 31.145"
	 xml:space="preserve">
<g>
	<path d="M29.944,5.826L29.178,4.55c0,0,0.146-1.166-0.805-2.043l-0.183-2.48l-0.875,1.788l-0.584-1.788l-0.839,1.679
		c0,0-4.525,2.942-6.457,5.906c-0.334-0.12-0.66-0.267-0.78-0.421c-0.174-0.225-0.25-0.856-0.153-1.122
		c0.154-0.427,0.002-2.222,0.002-2.222c1.029-0.023,1.446-1.166,1.446-1.166l0.584,0.281c0.271-0.429,0.035-1.472-0.12-1.815
		c-0.878-1.966-2.895-0.808-2.895-0.808c-1.299,0.912-0.266,1.577-0.266,1.577c-0.578-0.017-2.303,0.33-3.04,0.599
		c-1.404,0.507-3.913,3.082-3.913,3.082C9.024,6.849,9.718,7.993,9.718,7.993c0.292,0.663,2.383,1.912,3.31,2.439
		c-0.043-0.004-0.082-0.004-0.125-0.01c0,0-2.7-1.095-5.181,0.146c0,0-3.576-1.167-4.743,3.939c0,0-0.219,4.16-2.408,4.89
		c0,0,3.356,1.094,4.889-4.597c0,0-0.292-1.205,0.657-1.789c0,0-0.949,1.752,0.292,4.232c0,0,0.474,1.568-1.496,2.444
		c0,0-1.714,0.511-1.313,2.846c0,0-0.511,4.05,0.292,4.891c0,0,0.146,0.291-0.255,0.875c0,0-1.167,1.567,1.095,1.567
		c0,0,2.203-0.13,0.803-1.604c-0.958-1.008-1.277-0.912-0.73-5.508c0,0,0.657-1.496,1.204-1.605c0,0,2.773-0.583,3.393-2.262
		c0,0,1.131-0.185,0.657,1.715c0,0-1.934,1.859-0.584,2.81c0,0,2.408,2.264,2.992,2.443c0,0-0.109,0.548,0.292,0.911
		c0,0-0.657,0.293-0.547,0.768c0,0-0.547,0.984,1.496,0.984c0,0,1.934,0.072,0.365-1.387c0,0-0.183-1.824-1.387-2.115
		c0,0-2.262-2.043-1.094-3.283c0,0,1.86-1.715,2.152-3.176c0,0,3.687,0.769,6.202-0.108c0,0-0.475,2.153,0.365,3.612
		c0,0-0.146,3.027,0.438,3.647l0.073,2.628c0,0-0.547,0.946-0.146,1.604c0,0-0.513,1.168,0.291,1.205h1.824
		c0,0,0.619-0.328,0.036-0.657c0,0,0.841,0.219,0.767-0.364c0,0-0.365-1.387-1.096-1.86c0,0-0.292-2.334-0.072-3.574
		c0,0,0.875-3.356,1.24-5.182c0,0,1.823-2.479,1.604-4.195c-0.014-0.111-0.026-0.207-0.038-0.292
		c-0.009-0.057-0.015-0.104-0.021-0.149l0.276-5.942c0,0,0-2.189,1.532-2.116c0,0,0.547,0.839,1.35,1.204
		c0,0,0.912,1.312,2.189,0.146C30.564,8.162,30.709,7.25,29.944,5.826z M16.973,5.851c0,0,0.18,1.271,0.44,1.455
		c0,0-0.747-0.045-0.869-0.271c-0.098-0.179-0.136-1.011-0.136-1.011L16.973,5.851z M15.095,6.728l0.354,1.395
		c0.574,1.024,2.957,0.608,3.21,0.562c-0.391,0.39-1.043,0.914-1.997,1.299c-0.663-0.918-2.083-2.018-2.083-2.018
		C13.62,7.056,15.095,6.728,15.095,6.728z"/>
</g>
</svg>